<svg width="180" height="100" viewBox="0 0 180 100" fill="none" xmlns="http://www.w3.org/2000/svg">
<g filter="url(#filter0_d_211_5368)">
<path d="M33.2784 24.8107V54.5364C33.2784 57.509 34.0097 59.7974 35.4724 61.4016C36.9351 63.0059 39.082 63.808 41.913 63.808C44.744 63.808 46.9145 63.0059 48.4243 61.4016C49.9342 59.7974 50.6892 57.509 50.6892 54.5364V24.8107H62.7918V54.4656C62.7918 58.9009 61.8481 62.652 59.9608 65.7189C58.0734 68.7859 55.5255 71.0979 52.317 72.655C49.1557 74.212 45.6169 74.9905 41.7007 74.9905C37.7844 74.9905 34.2692 74.2356 31.1551 72.7257C28.0882 71.1687 25.6582 68.8567 23.8652 65.7897C22.0722 62.6756 21.1758 58.9009 21.1758 54.4656V24.8107H33.2784ZM83.393 24.8107V74.4951H71.2904V24.8107H83.393Z" fill="#2D9CDB"/>
</g>
<g filter="url(#filter1_d_211_5368)">
<path d="M118.886 74.4951L108.765 59.2784L99.8472 74.4951H86.1168L102.041 49.2282L85.7629 24.8107H99.8472L109.827 39.8151L118.603 24.8107H132.333L116.55 49.8652L132.97 74.4951H118.886Z" fill="#EB5757"/>
</g>
<g filter="url(#filter2_d_211_5368)">
<path d="M147.51 33.7413C147.333 34.5698 146.919 35.2354 146.267 35.7379C145.628 36.2404 144.895 36.4917 144.067 36.4917C142.871 36.4917 141.921 36.0706 141.214 35.2286C140.522 34.4001 140.175 33.2388 140.175 31.7448V25.0828H154.477V31.5207C154.477 32.9739 154.144 34.108 153.479 34.923C152.813 35.7515 151.91 36.1657 150.769 36.1657C149.927 36.1657 149.228 35.9416 148.671 35.4934C148.114 35.0588 147.727 34.4748 147.51 33.7413ZM148.691 28.5666V30.8484C148.691 31.4188 148.813 31.8534 149.058 32.1522C149.316 32.4646 149.689 32.6208 150.178 32.6208C150.667 32.6208 151.041 32.4646 151.299 32.1522C151.557 31.8534 151.686 31.4188 151.686 30.8484V28.5666H148.691ZM142.987 31.1336C142.987 31.7176 143.116 32.1658 143.374 32.4782C143.645 32.8042 144.033 32.9672 144.535 32.9672C145.038 32.9672 145.432 32.7974 145.717 32.4578C146.002 32.1319 146.145 31.6769 146.145 31.0928V28.5666H142.987V31.1336ZM142.702 47.4153V42.0776L140.175 41.2219V37.5751L154.477 42.7499V46.7837L140.175 51.9585V48.271L142.702 47.4153ZM145.391 46.5189L150.627 44.7464L145.391 42.9943V46.5189ZM140.033 58.7081C140.033 57.6623 140.202 56.7252 140.542 55.8967C140.882 55.0682 141.384 54.4026 142.05 53.9001C142.715 53.4112 143.516 53.1531 144.454 53.1259V56.8338C143.924 56.8882 143.516 57.0715 143.231 57.3839C142.96 57.6963 142.824 58.1037 142.824 58.6063C142.824 59.1224 142.939 59.5299 143.17 59.8287C143.415 60.1275 143.747 60.2769 144.168 60.2769C144.522 60.2769 144.814 60.1546 145.044 59.9101C145.275 59.6793 145.465 59.3872 145.615 59.0341C145.764 58.6946 145.934 58.2056 146.124 57.5673C146.409 56.6437 146.695 55.8899 146.98 55.3058C147.265 54.7218 147.686 54.2193 148.243 53.7982C148.8 53.3772 149.527 53.1667 150.423 53.1667C151.754 53.1667 152.793 53.6488 153.54 54.6132C154.301 55.5775 154.681 56.8338 154.681 58.3822C154.681 59.9577 154.301 61.2276 153.54 62.1919C152.793 63.1562 151.747 63.6724 150.403 63.7403V59.9713C150.864 59.9441 151.224 59.7743 151.482 59.4619C151.754 59.1496 151.89 58.7489 151.89 58.2599C151.89 57.8389 151.774 57.4993 151.543 57.2413C151.326 56.9832 151.007 56.8542 150.586 56.8542C150.124 56.8542 149.764 57.0715 149.506 57.5061C149.248 57.9408 148.97 58.6199 148.671 59.5434C148.358 60.467 148.06 61.214 147.774 61.7845C147.489 62.3685 147.075 62.871 146.532 63.2921C145.988 63.7131 145.289 63.9236 144.433 63.9236C143.618 63.9236 142.878 63.7131 142.213 63.2921C141.547 62.8846 141.017 62.287 140.623 61.4992C140.23 60.7115 140.033 59.7811 140.033 58.7081ZM151.686 69.5514H148.793V74.2168H146.104V69.5514H142.966V74.828H140.175V66.0676H154.477V74.828H151.686V69.5514Z" fill="#F2994A"/>
</g>
<defs>
<filter id="filter0_d_211_5368" x="0.468784" y="5.66646" width="103.631" height="91.5939" filterUnits="userSpaceOnUse" color-interpolation-filters="sRGB">
<feFlood flood-opacity="0" result="BackgroundImageFix"/>
<feColorMatrix in="SourceAlpha" type="matrix" values="0 0 0 0 0 0 0 0 0 0 0 0 0 0 0 0 0 0 127 0" result="hardAlpha"/>
<feOffset dy="1.56279"/>
<feGaussianBlur stdDeviation="10.3535"/>
<feComposite in2="hardAlpha" operator="out"/>
<feColorMatrix type="matrix" values="0 0 0 0 0.0313726 0 0 0 0 0.627451 0 0 0 0 0.968627 0 0 0 0.01 0"/>
<feBlend mode="normal" in2="BackgroundImageFix" result="effect1_dropShadow_211_5368"/>
<feBlend mode="normal" in="SourceGraphic" in2="effect1_dropShadow_211_5368" result="shape"/>
</filter>
<filter id="filter1_d_211_5368" x="65.0559" y="5.66646" width="88.6213" height="91.0984" filterUnits="userSpaceOnUse" color-interpolation-filters="sRGB">
<feFlood flood-opacity="0" result="BackgroundImageFix"/>
<feColorMatrix in="SourceAlpha" type="matrix" values="0 0 0 0 0 0 0 0 0 0 0 0 0 0 0 0 0 0 127 0" result="hardAlpha"/>
<feOffset dy="1.56279"/>
<feGaussianBlur stdDeviation="10.3535"/>
<feComposite in2="hardAlpha" operator="out"/>
<feColorMatrix type="matrix" values="0 0 0 0 0.968627 0 0 0 0 0.0313725 0 0 0 0 0.0313725 0 0 0 0.05 0"/>
<feBlend mode="normal" in2="BackgroundImageFix" result="effect1_dropShadow_211_5368"/>
<feBlend mode="normal" in="SourceGraphic" in2="effect1_dropShadow_211_5368" result="shape"/>
</filter>
<filter id="filter2_d_211_5368" x="119.326" y="5.93856" width="56.0622" height="91.1592" filterUnits="userSpaceOnUse" color-interpolation-filters="sRGB">
<feFlood flood-opacity="0" result="BackgroundImageFix"/>
<feColorMatrix in="SourceAlpha" type="matrix" values="0 0 0 0 0 0 0 0 0 0 0 0 0 0 0 0 0 0 127 0" result="hardAlpha"/>
<feOffset dy="1.56279"/>
<feGaussianBlur stdDeviation="10.3535"/>
<feComposite in2="hardAlpha" operator="out"/>
<feColorMatrix type="matrix" values="0 0 0 0 0.968627 0 0 0 0 0.874902 0 0 0 0 0.0313725 0 0 0 0.12 0"/>
<feBlend mode="normal" in2="BackgroundImageFix" result="effect1_dropShadow_211_5368"/>
<feBlend mode="normal" in="SourceGraphic" in2="effect1_dropShadow_211_5368" result="shape"/>
</filter>
</defs>
</svg>
